<svg width="23" height="18" viewBox="0 0 23 18" fill="none" xmlns="http://www.w3.org/2000/svg">
<path d="M11.5733 0.998535H11.7013C12.8829 1.00304 18.8701 1.04804 20.4844 1.50104C20.9724 1.63929 21.4171 1.90877 21.774 2.28255C22.131 2.65633 22.3877 3.12131 22.5184 3.63104C22.6636 4.20104 22.7657 4.95554 22.8347 5.73404L22.8491 5.89004L22.8807 6.28004L22.8922 6.43604C22.9856 7.80704 22.9971 9.09104 22.9986 9.37154V9.48404C22.9971 9.77504 22.9842 11.146 22.8807 12.574L22.8692 12.7315L22.8562 12.8875C22.7844 13.7455 22.678 14.5975 22.5184 15.2245C22.3881 15.7345 22.1315 16.1997 21.7745 16.5735C21.4175 16.9474 20.9726 17.2167 20.4844 17.3545C18.8169 17.8225 12.4789 17.8555 11.6006 17.857H11.3965C10.9523 17.857 9.11519 17.848 7.18894 17.779L6.94456 17.77L6.8195 17.764L6.57369 17.7535L6.32788 17.743C4.73225 17.6695 3.21281 17.551 2.51275 17.353C2.0247 17.2153 1.57991 16.9462 1.22292 16.5726C0.865926 16.1991 0.60928 15.7342 0.478687 15.2245C0.319125 14.599 0.21275 13.7455 0.140875 12.8875L0.129375 12.73L0.117875 12.574C0.0469309 11.5576 0.00761856 10.5391 0 9.52004L0 9.33554C0.002875 9.01304 0.014375 7.89854 0.092 6.66854L0.102063 6.51404L0.106375 6.43604L0.117875 6.28004L0.1495 5.89004L0.163875 5.73404C0.232875 4.95554 0.334937 4.19954 0.480125 3.63104C0.610497 3.12111 0.867046 2.6559 1.22405 2.28206C1.58105 1.90822 2.02597 1.63887 2.51419 1.50104C3.21425 1.30604 4.73369 1.18604 6.32931 1.11104L6.57369 1.10054L6.82094 1.09154L6.94456 1.08704L7.19037 1.07654C8.55845 1.0306 9.9271 1.00509 11.2959 1.00004H11.5733V0.998535ZM9.2 5.81354V13.0405L15.1757 9.42854L9.2 5.81354Z" fill="white"/>
</svg>
