<svg width="21" height="20" viewBox="0 0 21 20" fill="none" xmlns="http://www.w3.org/2000/svg">
<path d="M11.4851 0.0012304C12.1844 -0.00156983 12.8837 0.00576429 13.5829 0.0232305L13.7688 0.0302304C13.9834 0.0382304 14.1952 0.0482304 14.4511 0.0602304C15.4708 0.11023 16.1665 0.278231 16.777 0.525231C17.4095 0.779231 17.9423 1.12323 18.4752 1.67923C18.9623 2.17884 19.3394 2.78318 19.5801 3.45023C19.8168 4.08723 19.9778 4.81423 20.0257 5.87823C20.0372 6.14423 20.0468 6.36623 20.0545 6.59023L20.0602 6.78423C20.0773 7.51342 20.0846 8.24283 20.0823 8.97223L20.0832 9.71823V11.0282C20.0856 11.758 20.0782 12.4877 20.0612 13.2172L20.0554 13.4112C20.0478 13.6352 20.0382 13.8562 20.0267 14.1232C19.9788 15.1872 19.8159 15.9132 19.5801 16.5502C19.3402 17.218 18.963 17.8228 18.4752 18.3222C17.9959 18.8306 17.4165 19.224 16.777 19.4752C16.1665 19.7222 15.4708 19.8902 14.4511 19.9402C14.1952 19.9522 13.9834 19.9622 13.7688 19.9702L13.5829 19.9762C12.8837 19.994 12.1844 20.0017 11.4851 19.9992L10.7702 20.0002H9.51569C8.81636 20.0027 8.11703 19.995 7.4179 19.9772L7.23199 19.9712C7.00449 19.9626 6.77704 19.9526 6.54965 19.9412C5.52998 19.8912 4.83423 19.7212 4.22282 19.4752C3.58331 19.2246 3.00405 18.8311 2.52561 18.3222C2.03786 17.8225 1.66045 17.2178 1.41969 16.5502C1.18299 15.9132 1.02199 15.1872 0.974069 14.1232C0.963395 13.8859 0.953812 13.6486 0.945319 13.4112L0.940527 13.2172C0.922859 12.4877 0.914872 11.758 0.916569 11.0282V8.97223C0.913894 8.24283 0.920922 7.51343 0.937652 6.78423L0.94436 6.59023C0.952027 6.36623 0.96161 6.14423 0.97311 5.87823C1.02103 4.81323 1.18203 4.08823 1.41874 3.45023C1.65963 2.78285 2.03778 2.17868 2.52657 1.68023C3.00468 1.17098 3.58357 0.776803 4.22282 0.525231C4.83423 0.278231 5.52903 0.11023 6.54965 0.0602304L7.23199 0.0302304L7.4179 0.0252306C8.1167 0.00680338 8.81571 -0.00153085 9.51474 0.000230468L11.4851 0.0012304ZM10.4999 5.00123C9.86501 4.99186 9.23467 5.11425 8.6455 5.3613C8.05634 5.60834 7.5201 5.97511 7.06796 6.44029C6.61582 6.90546 6.25679 7.45977 6.01173 8.07099C5.76667 8.68222 5.64047 9.33817 5.64047 10.0007C5.64047 10.6633 5.76667 11.3192 6.01173 11.9305C6.25679 12.5417 6.61582 13.096 7.06796 13.5612C7.5201 14.0264 8.05634 14.3931 8.6455 14.6402C9.23467 14.8872 9.86501 15.0096 10.4999 15.0002C11.7707 15.0002 12.9895 14.4734 13.8881 13.5358C14.7867 12.5981 15.2916 11.3263 15.2916 10.0002C15.2916 8.67415 14.7867 7.40238 13.8881 6.4647C12.9895 5.52701 11.7707 5.00123 10.4999 5.00123ZM10.4999 7.00123C10.8818 6.99389 11.2613 7.06603 11.6162 7.21344C11.971 7.36085 12.2942 7.58057 12.5668 7.85978C12.8394 8.13898 13.0559 8.47206 13.2038 8.83957C13.3516 9.20708 13.4278 9.60165 13.4279 10.0002C13.4279 10.3988 13.3519 10.7934 13.2042 11.1609C13.0564 11.5285 12.84 11.8617 12.5675 12.141C12.295 12.4203 11.9719 12.6401 11.6171 12.7876C11.2622 12.9352 10.8828 13.0074 10.5009 13.0002C9.73836 13.0002 9.0071 12.6842 8.46793 12.1216C7.92876 11.5589 7.62586 10.7959 7.62586 10.0002C7.62586 9.20458 7.92876 8.44152 8.46793 7.87891C9.0071 7.3163 9.73836 7.00023 10.5009 7.00023L10.4999 7.00123ZM15.5312 3.50123C15.222 3.51414 14.9296 3.65138 14.7152 3.8842C14.5009 4.11702 14.3811 4.42736 14.3811 4.75023C14.3811 5.0731 14.5009 5.38344 14.7152 5.61626C14.9296 5.84908 15.222 5.98632 15.5312 5.99923C15.8489 5.99923 16.1536 5.86753 16.3782 5.63311C16.6029 5.39869 16.7291 5.08075 16.7291 4.74923C16.7291 4.41771 16.6029 4.09977 16.3782 3.86535C16.1536 3.63093 15.8489 3.49923 15.5312 3.49923V3.50123Z" fill="white"/>
</svg>
