<svg width="22" height="18" viewBox="0 0 22 18" fill="none" xmlns="http://www.w3.org/2000/svg">
<path d="M20.1106 3.8098L16.8471 6.34807C14.7603 7.97114 13.7169 8.78268 12.5598 9.0939C11.5391 9.36843 10.4609 9.36843 9.44021 9.0939C8.28306 8.78268 7.23965 7.97114 5.15285 6.34807L1.88936 3.8098M20.1106 3.8098C19.6402 3.00716 18.9378 2.35413 18.0882 1.93327C17.0454 1.41669 15.6803 1.41669 12.95 1.41669H9.05C6.31974 1.41669 4.95462 1.41669 3.9118 1.93327C3.06222 2.35413 2.35977 3.00716 1.88936 3.8098M20.1106 3.8098C20.1481 3.87378 20.1842 3.93871 20.2187 4.00454C20.75 5.0184 20.75 6.34561 20.75 9.00002C20.75 11.6544 20.75 12.9816 20.2187 13.9955C19.7513 14.8873 19.0055 15.6124 18.0882 16.0668C17.0454 16.5834 15.6803 16.5834 12.95 16.5834H9.05C6.31974 16.5834 4.95462 16.5834 3.9118 16.0668C2.99451 15.6124 2.24873 14.8873 1.78134 13.9955C1.25 12.9816 1.25 11.6544 1.25 9.00002C1.25 6.34561 1.25 5.0184 1.78134 4.00454C1.81585 3.93871 1.85187 3.87378 1.88936 3.8098" stroke="#FF751A" stroke-width="2" stroke-linecap="round" stroke-linejoin="round"/>
</svg>
