<svg width="25" height="18" viewBox="0 0 25 18" fill="none" xmlns="http://www.w3.org/2000/svg">
<path d="M21.75 3.3125H20.125V2.5C20.125 1.85353 19.8682 1.23355 19.4111 0.776427C18.954 0.319307 18.334 0.0625 17.6875 0.0625H3.0625C2.41603 0.0625 1.79605 0.319307 1.33893 0.776427C0.881807 1.23355 0.625 1.85353 0.625 2.5V12.25C0.625 12.8965 0.881807 13.5165 1.33893 13.9736C1.79605 14.4307 2.41603 14.6875 3.0625 14.6875H14.4375V15.5C14.4375 16.1465 14.6943 16.7665 15.1514 17.2236C15.6085 17.6807 16.2285 17.9375 16.875 17.9375H21.75C22.3965 17.9375 23.0165 17.6807 23.4736 17.2236C23.9307 16.7665 24.1875 16.1465 24.1875 15.5V5.75C24.1875 5.10353 23.9307 4.48355 23.4736 4.02643C23.0165 3.56931 22.3965 3.3125 21.75 3.3125ZM3.0625 13.0625C2.84701 13.0625 2.64035 12.9769 2.48798 12.8245C2.3356 12.6722 2.25 12.4655 2.25 12.25V2.5C2.25 2.28451 2.3356 2.07785 2.48798 1.92548C2.64035 1.7731 2.84701 1.6875 3.0625 1.6875H17.6875C17.903 1.6875 18.1097 1.7731 18.262 1.92548C18.4144 2.07785 18.5 2.28451 18.5 2.5V3.3125H16.875C16.2285 3.3125 15.6085 3.56931 15.1514 4.02643C14.6943 4.48355 14.4375 5.10353 14.4375 5.75V13.0625H3.0625ZM22.5625 15.5C22.5625 15.7155 22.4769 15.9222 22.3245 16.0745C22.1722 16.2269 21.9655 16.3125 21.75 16.3125H16.875C16.6595 16.3125 16.4528 16.2269 16.3005 16.0745C16.1481 15.9222 16.0625 15.7155 16.0625 15.5V5.75C16.0625 5.53451 16.1481 5.32785 16.3005 5.17548C16.4528 5.0231 16.6595 4.9375 16.875 4.9375H21.75C21.9655 4.9375 22.1722 5.0231 22.3245 5.17548C22.4769 5.32785 22.5625 5.53451 22.5625 5.75V15.5ZM12.8125 17.125C12.8125 17.3405 12.7269 17.5472 12.5745 17.6995C12.4222 17.8519 12.2155 17.9375 12 17.9375H7.9375C7.72201 17.9375 7.51535 17.8519 7.36298 17.6995C7.2106 17.5472 7.125 17.3405 7.125 17.125C7.125 16.9095 7.2106 16.7028 7.36298 16.5505C7.51535 16.3981 7.72201 16.3125 7.9375 16.3125H12C12.2155 16.3125 12.4222 16.3981 12.5745 16.5505C12.7269 16.7028 12.8125 16.9095 12.8125 17.125ZM20.9375 7.375C20.9375 7.59049 20.8519 7.79715 20.6995 7.94952C20.5472 8.1019 20.3405 8.1875 20.125 8.1875H18.5C18.2845 8.1875 18.0778 8.1019 17.9255 7.94952C17.7731 7.79715 17.6875 7.59049 17.6875 7.375C17.6875 7.15951 17.7731 6.95285 17.9255 6.80048C18.0778 6.6481 18.2845 6.5625 18.5 6.5625H20.125C20.3405 6.5625 20.5472 6.6481 20.6995 6.80048C20.8519 6.95285 20.9375 7.15951 20.9375 7.375Z" fill="#FF751A"/>
</svg>
