<svg width="24" height="24" viewBox="0 0 24 24" fill="none" xmlns="http://www.w3.org/2000/svg">
<path d="M8.74987 12.152L10.9238 14.3236C11.9694 12.4953 13.4165 10.9282 15.1558 9.74049L15.2499 9.67626M22.0207 12C22.0207 10.6019 21.1603 9.38965 19.8796 8.73463C20.3293 7.37571 20.0752 5.89947 19.0877 4.91205C18.1003 3.92463 16.6241 3.67045 15.2652 4.12016C14.6199 2.83945 13.3979 1.97913 11.9998 1.97913C10.6018 1.97913 9.38953 2.83945 8.74429 4.12016C7.37559 3.67045 5.89935 3.92463 4.91193 4.91205C3.92451 5.89947 3.6801 7.37571 4.12982 8.73463C2.84911 9.38965 1.979 10.6019 1.979 12C1.979 13.398 2.84911 14.6103 4.12982 15.2653C3.6801 16.6242 3.92451 18.1004 4.91193 19.0879C5.89935 20.0753 7.37559 20.3197 8.73451 19.8798C9.38953 21.1605 10.6018 22.0208 11.9998 22.0208C13.3979 22.0208 14.6199 21.1605 15.2652 19.8798C16.6241 20.3197 18.1003 20.0753 19.0877 19.0879C20.0752 18.1004 20.3293 16.6242 19.8796 15.2653C21.1603 14.6103 22.0207 13.398 22.0207 12Z" stroke="#FF751A" stroke-width="2" stroke-linecap="round" stroke-linejoin="round"/>
</svg>
