<svg width="24" height="21" viewBox="0 0 24 21" fill="none" xmlns="http://www.w3.org/2000/svg">
<path d="M16.9408 5.0593C16.0923 2.86256 14.1991 1.33337 11.9998 1.33337C9.80053 1.33337 7.90737 2.86256 7.05889 5.0593M16.9408 5.0593C20.4394 5.77776 22.8332 7.23541 22.8332 8.91671C22.8332 11.3099 17.9829 13.25 11.9998 13.25C6.01675 13.25 1.1665 11.3099 1.1665 8.91671C1.1665 7.23541 3.56026 5.77776 7.05889 5.0593M16.9408 5.0593C17.3515 6.12263 17.4943 7.28468 17.3773 8.41736C15.7927 8.73508 13.9569 8.91671 11.9998 8.91671C10.0428 8.91671 8.20695 8.73508 6.62241 8.41736C6.50533 7.28468 6.64818 6.12263 7.05889 5.0593M3.33317 15.4167L2.24984 17.5834M11.9998 16.5V19.75M20.6665 15.4167L21.7498 17.5834" stroke="#FF751A" stroke-width="2" stroke-linecap="round" stroke-linejoin="round"/>
</svg>
