<svg width="26" height="22" viewBox="0 0 26 22" fill="none" xmlns="http://www.w3.org/2000/svg">
<path d="M9.1195 16.5H4.0625C3.84701 16.5 3.64035 16.4144 3.48798 16.262C3.3356 16.1097 3.25 15.903 3.25 15.6875V1.875H1.625C1.40951 1.875 1.20285 1.7894 1.05048 1.63702C0.898102 1.48465 0.8125 1.27799 0.8125 1.0625C0.8125 0.847012 0.898102 0.640349 1.05048 0.487976C1.20285 0.335603 1.40951 0.25 1.625 0.25H24.375C24.5905 0.25 24.7972 0.335603 24.9495 0.487976C25.1019 0.640349 25.1875 0.847012 25.1875 1.0625C25.1875 1.27799 25.1019 1.48465 24.9495 1.63702C24.7972 1.7894 24.5905 1.875 24.375 1.875H22.75V15.6875C22.75 15.903 22.6644 16.1097 22.512 16.262C22.3597 16.4144 22.153 16.5 21.9375 16.5H16.8902L19.7048 21.375H17.8295L15.015 16.5H10.9948L8.18025 21.375H6.305L9.1195 16.5ZM21.125 1.875H4.875V14.875H21.125V1.875ZM8.70025 10.5753C8.62471 10.6508 8.53503 10.7107 8.43632 10.7516C8.33762 10.7925 8.23183 10.8135 8.125 10.8135C8.01817 10.8135 7.91238 10.7925 7.81368 10.7516C7.71497 10.7107 7.62529 10.6508 7.54975 10.5753C7.47421 10.4997 7.41428 10.41 7.3734 10.3113C7.33252 10.2126 7.31147 10.1068 7.31147 10C7.31147 9.89317 7.33252 9.78738 7.3734 9.68868C7.41428 9.58998 7.47421 9.50029 7.54975 9.42475L11.2986 5.6775L14.4836 8.06625L17.2412 4.618C17.3058 4.52902 17.3877 4.45406 17.4821 4.39767C17.5764 4.34127 17.6813 4.3046 17.7902 4.28989C17.8991 4.27518 18.0099 4.28272 18.1159 4.31207C18.2218 4.34142 18.3207 4.39195 18.4065 4.46062C18.4923 4.52929 18.5633 4.61467 18.6152 4.71158C18.6671 4.80849 18.6988 4.91492 18.7084 5.02443C18.7179 5.13393 18.7052 5.24424 18.6708 5.34868C18.6365 5.45311 18.5814 5.5495 18.5088 5.632L14.768 10.3104L11.4514 7.8225L8.70025 10.5736V10.5753Z" fill="#FF751A"/>
</svg>
