<svg width="24" height="23" viewBox="0 0 24 23" fill="none" xmlns="http://www.w3.org/2000/svg">
<path d="M23.375 7.9375V3.0625H18.5V4.6875H10.375V2.25C10.3746 1.81916 10.2032 1.40608 9.89857 1.10143C9.59392 0.796773 9.18084 0.62543 8.75 0.625H2.25C1.81916 0.62543 1.40608 0.796773 1.10143 1.10143C0.796773 1.40608 0.62543 1.81916 0.625 2.25V8.75C0.62543 9.18084 0.796773 9.59392 1.10143 9.89857C1.40608 10.2032 1.81916 10.3746 2.25 10.375H8.75C9.18084 10.3746 9.59392 10.2032 9.89857 9.89857C10.2032 9.59392 10.3746 9.18084 10.375 8.75V6.3125C11.0213 6.31315 11.6409 6.57016 12.0979 7.02714C12.5548 7.48412 12.8119 8.10373 12.8125 8.75V16.0625H7.9375V14.4375H3.0625V19.3125H7.9375V17.6875H12.8125V19.3125C12.8129 19.7433 12.9843 20.1564 13.2889 20.4611C13.5936 20.7657 14.0067 20.9371 14.4375 20.9375H18.5V22.5625H23.375V17.6875H18.5V19.3125H14.4375V13.625H18.5V15.25H23.375V10.375H18.5V12H14.4375V8.75C14.4345 7.86819 14.1419 7.01179 13.6047 6.3125H18.5V7.9375H23.375ZM2.25 8.75V2.25H8.75V8.75H2.25ZM6.3125 17.6875H4.6875V16.0625H6.3125V17.6875ZM20.125 19.3125H21.75V20.9375H20.125V19.3125ZM20.125 12H21.75V13.625H20.125V12ZM20.125 4.6875H21.75V6.3125H20.125V4.6875Z" fill="#FF751A"/>
</svg>
