<svg width="22" height="22" viewBox="0 0 22 22" fill="none" xmlns="http://www.w3.org/2000/svg">
<path d="M6.78652 15.213C6.68498 15.1114 6.62793 14.9737 6.62793 14.83C6.62793 14.6864 6.68498 14.5486 6.78652 14.4471L10.2337 10.9999L6.78652 7.55273C6.68785 7.45057 6.63326 7.31375 6.63449 7.17173C6.63572 7.0297 6.69269 6.89385 6.79312 6.79342C6.89355 6.69299 7.02941 6.63602 7.17143 6.63479C7.31345 6.63355 7.45028 6.68815 7.55244 6.78682L10.9996 10.234L14.4468 6.78682C14.5489 6.68815 14.6858 6.63355 14.8278 6.63479C14.9698 6.63602 15.1057 6.69299 15.2061 6.79342C15.3065 6.89385 15.3635 7.0297 15.3647 7.17173C15.366 7.31375 15.3114 7.45057 15.2127 7.55273L11.7655 10.9999L15.2127 14.4471C15.3114 14.5492 15.366 14.6861 15.3647 14.8281C15.3635 14.9701 15.3065 15.106 15.2061 15.2064C15.1057 15.3068 14.9698 15.3638 14.8278 15.365C14.6858 15.3663 14.5489 15.3117 14.4468 15.213L10.9996 11.7658L7.55244 15.213C7.45086 15.3145 7.31311 15.3716 7.16948 15.3716C7.02585 15.3716 6.8881 15.3145 6.78652 15.213Z" fill="#FF751A"/>
<path fill-rule="evenodd" clip-rule="evenodd" d="M10.9998 21.8333C16.9831 21.8333 21.8332 16.9832 21.8332 11C21.8332 5.01671 16.9831 0.166626 10.9998 0.166626C5.01659 0.166626 0.166504 5.01671 0.166504 11C0.166504 16.9832 5.01659 21.8333 10.9998 21.8333ZM10.9998 20.75C16.3845 20.75 20.7498 16.3847 20.7498 11C20.7498 5.61525 16.3845 1.24996 10.9998 1.24996C5.61513 1.24996 1.24984 5.61525 1.24984 11C1.24984 16.3847 5.61513 20.75 10.9998 20.75Z" fill="#FF751A"/>
</svg>
