<svg width="30" height="22" viewBox="0 0 30 22" fill="none" xmlns="http://www.w3.org/2000/svg">
<path d="M1 14.3031C1 15.1301 1.1629 15.9491 1.47941 16.7132C1.79591 17.4773 2.25982 18.1716 2.84465 18.7564C4.02575 19.9376 5.62768 20.6011 7.29801 20.6011H24.0927C25.3327 20.6033 26.5273 20.1352 27.4357 19.2912C28.3441 18.4472 28.8986 17.2902 28.9874 16.0534C29.0762 14.8166 28.6927 13.5922 27.9141 12.6271C27.1356 11.662 26.0201 11.0281 24.7925 10.8532C24.8062 8.47219 23.9523 6.16772 22.3904 4.37054C20.8285 2.57336 18.6656 1.40649 16.306 1.08804C13.9464 0.769594 11.5516 1.32137 9.56917 2.64024C7.58679 3.9591 6.15255 5.95476 5.53457 8.25419C4.22615 8.63628 3.07692 9.43237 2.25932 10.523C1.44172 11.6136 0.999849 12.94 1 14.3031Z" stroke="#FF751A" stroke-linejoin="round"/>
<path d="M12.1963 9.40454L17.7945 15.0028M12.1963 15.0028L17.7945 9.40454" stroke="#FF751A" stroke-linecap="round" stroke-linejoin="round"/>
</svg>
