<svg width="26" height="23" viewBox="0 0 26 23" fill="none" xmlns="http://www.w3.org/2000/svg">
<path d="M23.1111 0H2.88889C2.12271 0 1.38791 0.293723 0.846136 0.816551C0.304364 1.33938 0 2.04849 0 2.78788V16.0303C0 16.7697 0.304364 17.4788 0.846136 18.0016C1.38791 18.5245 2.12271 18.8182 2.88889 18.8182H10.8767V20.9509H8.66667V23H17.3333V20.923H15.1667V18.8182H23.1111C23.8773 18.8182 24.6121 18.5245 25.1539 18.0016C25.6956 17.4788 26 16.7697 26 16.0303V2.78788C26 2.04849 25.6956 1.33938 25.1539 0.816551C24.6121 0.293723 23.8773 0 23.1111 0ZM23.8478 16.7273H2.18111V2.09091H23.8478V16.7273Z" fill="#FF751A"/>
</svg>
